<?xml version="1.0" encoding="UTF-8" standalone="no"?>
<svg
   xmlns:dc="http://purl.org/dc/elements/1.1/"
   xmlns:cc="http://creativecommons.org/ns#"
   xmlns:rdf="http://www.w3.org/1999/02/22-rdf-syntax-ns#"
   xmlns:svg="http://www.w3.org/2000/svg"
   xmlns="http://www.w3.org/2000/svg"
   version="1.1"
   id="svg3708"
   viewBox="0 0 270 71.000001"
   height="71"
   width="270">
  <defs
     id="defs3710" />
  <metadata
     id="metadata3713">
    <rdf:RDF>
      <cc:Work
         rdf:about="">
        <dc:format>image/svg+xml</dc:format>
        <dc:type
           rdf:resource="http://purl.org/dc/dcmitype/StillImage" />
        <dc:title></dc:title>
      </cc:Work>
    </rdf:RDF>
  </metadata>
  <g
     transform="translate(0,-981.36216)"
     id="layer1">
    <g
       id="g10"
       transform="matrix(0.27608537,0,0,-0.27608537,-36.276377,1088.8623)">
      <g
         id="g12"
         transform="scale(0.1,0.1)">
        <path
           d="m 4818.62,2174.71 0,214.65 -34.2,0 0,-211.95 c 0,-48.6 -31.05,-80.55 -77.85,-80.55 -46.8,0 -77.4,31.95 -77.4,80.55 l 0,211.95 -34.2,0 0,-214.65 c 0,-63.9 46.8,-108.45 111.6,-108.45 64.8,0 112.05,44.55 112.05,108.45 m 308.7,184.05 0,30.6 -219.6,0 0,-30.6 92.7,0 0,-289.8 34.2,0 0,289.8 z m 313.64,-201.15 c 0,38.25 -21.6,64.8 -52.2,76.05 27,9.9 47.25,36.45 47.25,70.2 0,53.55 -38.7,85.5 -94.5,85.5 l -120.6,0 0,-320.4 124.65,0 c 56.7,0 95.4,30.6 95.4,88.65 m -39.15,145.8 c 0,-38.25 -27.45,-55.8 -63,-55.8 l -83.7,0 0,111.15 83.7,0 c 35.55,0 63,-17.1 63,-55.35 m 4.95,-144.9 c 0,-36 -24.75,-58.95 -64.35,-58.95 l -87.3,0 0,117.45 87.3,0 c 39.6,0 64.35,-22.5 64.35,-58.5 m 182.7,230.85 -34.2,0 0,-320.4 34.2,0 z m 324.45,-320.4 0,30.6 -163.8,0 0,289.8 -34.2,0 0,-320.4 z m 315.9,163.8 c 0,44.55 1.8,93.6 -31.5,126.9 -19.35,19.35 -47.7,29.7 -81,29.7 l -109.8,0 0,-320.4 109.8,0 c 33.3,0 61.65,10.35 81,29.7 33.3,33.3 31.5,89.55 31.5,134.1 m -34.2,0 c 0,-39.15 0.9,-86.85 -21.15,-109.8 -16.65,-17.1 -38.25,-23.4 -63,-23.4 l -69.75,0 0,259.2 69.75,0 c 24.75,0 46.35,-6.3 63,-23.4 22.05,-22.95 21.15,-63.45 21.15,-102.6 m 385.2,-163.8 0,320.4 -34.2,0 0,-256.05 -170.1,256.05 -32.4,0 0,-320.4 34.2,0 0,256.95 170.1,-256.95 z m 160.65,320.4 -34.2,0 0,-320.4 34.2,0 z m 363.14,-320.4 0,320.4 -34.2,0 0,-256.05 -170.1,256.05 -32.4,0 0,-320.4 34.2,0 0,256.95 170.1,-256.95 z m 339.3,117 0,50.85 -112.95,0 0,-30.15 78.75,0 0,-24.3 c 0,-24.75 -4.95,-42.3 -18,-58.05 -14.85,-18 -37.35,-27.45 -60.75,-27.45 -21.15,0 -41.4,8.1 -55.35,22.5 -20.25,20.7 -22.5,42.75 -22.5,109.8 0,67.05 2.25,88.65 22.5,109.35 13.95,14.4 34.2,22.95 55.35,22.95 40.05,0 68.85,-24.75 77.85,-65.25 l 34.2,0 c -9.45,56.25 -50.85,95.85 -112.05,95.85 -31.95,0 -60.3,-11.7 -81.9,-33.3 -30.15,-30.15 -30.15,-61.65 -30.15,-129.6 0,-67.95 0,-99.45 30.15,-129.6 21.6,-21.6 50.4,-33.3 81.9,-33.3 32.85,0 63,12.6 85.5,36.9 19.8,21.15 27.45,45.9 27.45,82.8 m 306.45,-28.8 c 0,26.55 -9.45,48.6 -27,63.45 -13.5,11.7 -28.35,18 -58.5,22.5 l -35.1,5.4 c -16.65,2.7 -33.3,9 -43.2,17.55 -9.9,8.55 -14.4,21.15 -14.4,36.9 0,35.55 24.75,59.4 67.5,59.4 33.75,0 54.9,-9.45 74.7,-27.45 l 22.05,22.05 c -27.45,24.75 -54.45,35.1 -95.4,35.1 -63.45,0 -102.6,-36 -102.6,-90.45 0,-25.65 8.1,-45.45 24.3,-59.85 13.95,-12.15 33.75,-20.25 58.95,-24.3 l 37.35,-5.85 c 23.4,-3.6 31.5,-6.3 41.85,-15.3 10.35,-9 15.3,-23.4 15.3,-40.05 0,-37.35 -28.8,-59.4 -75.6,-59.4 -36,0 -60.75,8.55 -87.3,35.1 l -23.4,-23.4 c 30.15,-30.15 61.65,-42.3 109.8,-42.3 66.6,0 110.7,34.65 110.7,90.9 m 291.1,0 c 0,26.55 -9.45,48.6 -27,63.45 -13.5,11.7 -28.35,18 -58.5,22.5 l -35.1,5.4 c -16.65,2.7 -33.3,9 -43.2,17.55 -9.9,8.55 -14.4,21.15 -14.4,36.9 0,35.55 24.75,59.4 67.5,59.4 33.75,0 54.9,-9.45 74.7,-27.45 l 22.05,22.05 c -27.45,24.75 -54.45,35.1 -95.4,35.1 -63.45,0 -102.6,-36 -102.6,-90.45 0,-25.65 8.1,-45.45 24.3,-59.85 13.95,-12.15 33.75,-20.25 58.95,-24.3 l 37.35,-5.85 c 23.4,-3.6 31.5,-6.3 41.85,-15.3 10.35,-9 15.3,-23.4 15.3,-40.05 0,-37.35 -28.8,-59.4 -75.6,-59.4 -36,0 -60.75,8.55 -87.3,35.1 l -23.4,-23.4 c 30.15,-30.15 61.65,-42.3 109.8,-42.3 66.6,0 110.7,34.65 110.7,90.9 m 269.55,201.6 0,30.6 -219.6,0 0,-30.6 92.7,0 0,-289.8 34.2,0 0,289.8 z m 281.69,30.6 -36.9,0 -74.7,-153.45 -75.6,153.45 -36.9,0 95.4,-188.1 0,-132.3 34.2,0 0,132.3 z m 307.8,-320.4 -76.05,145.35 c 41.4,8.55 69.75,39.15 69.75,85.95 0,55.35 -39.15,89.1 -94.95,89.1 l -122.85,0 0,-320.4 34.2,0 0,142.2 76.95,0 72.9,-142.2 z m -40.5,230.85 c 0,-39.15 -26.55,-58.5 -63.9,-58.5 l -85.5,0 0,117.45 85.5,0 c 37.35,0 63.9,-19.8 63.9,-58.95 m 344.24,-230.85 0,30.6 -164.7,0 0,115.65 140.4,0 0,30.6 -140.4,0 0,112.95 164.7,0 0,30.6 -198.9,0 0,-320.4 z m 302.85,0 0,30.6 -163.8,0 0,289.8 -34.2,0 0,-320.4 z m 268.65,88.2 c 0,26.55 -9.45,48.6 -27,63.45 -13.5,11.7 -28.35,18 -58.5,22.5 l -35.1,5.4 c -16.65,2.7 -33.3,9 -43.2,17.55 -9.9,8.55 -14.4,21.15 -14.4,36.9 0,35.55 24.75,59.4 67.5,59.4 33.75,0 54.9,-9.45 74.7,-27.45 l 22.05,22.05 c -27.45,24.75 -54.45,35.1 -95.4,35.1 -63.45,0 -102.6,-36 -102.6,-90.45 0,-25.65 8.1,-45.45 24.3,-59.85 13.95,-12.15 33.75,-20.25 58.95,-24.3 l 37.35,-5.85 c 23.4,-3.6 31.5,-6.3 41.85,-15.3 10.35,-9 15.3,-23.4 15.3,-40.05 0,-37.35 -28.8,-59.4 -75.6,-59.4 -36,0 -60.75,8.55 -87.3,35.1 l -23.4,-23.4 c 30.15,-30.15 61.65,-42.3 109.8,-42.3 66.6,0 110.7,34.65 110.7,90.9 m 304.17,-88.2 0,30.6 -164.67,0 0,115.65 140.37,0 0,30.6 -140.37,0 0,112.95 164.67,0 0,30.6 -198.87,0 0,-320.4 z m 341.6,0 0,320.4 -34.2,0 0,-256.05 -170.1,256.05 -32.4,0 0,-320.4 34.2,0 0,256.95 170.1,-256.95 32.4,0"
           style="fill:#231f20;fill-opacity:1;fill-rule:nonzero;stroke:none"
           id="path14" />
        <path
           d="m 4811.42,2889.16 c 0,67.95 0,99.45 -30.15,129.6 -21.6,21.6 -49.95,33.3 -81.9,33.3 -31.95,0 -60.3,-11.7 -81.9,-33.3 -30.15,-30.15 -30.15,-61.65 -30.15,-129.6 0,-67.95 0,-99.45 30.15,-129.6 21.6,-21.6 49.95,-33.3 81.9,-33.3 31.95,0 60.3,11.7 81.9,33.3 30.15,30.15 30.15,61.65 30.15,129.6 m -34.2,0 c 0,-67.05 -2.25,-88.65 -22.5,-109.35 -13.95,-14.4 -34.2,-22.95 -55.35,-22.95 -21.15,0 -41.4,8.55 -55.35,22.95 -20.25,20.7 -22.5,42.3 -22.5,109.35 0,67.05 2.25,88.65 22.5,109.35 13.95,14.4 34.2,22.95 55.35,22.95 21.15,0 41.4,-8.55 55.35,-22.95 20.25,-20.7 22.5,-42.3 22.5,-109.35 m 366.75,66.15 c 0,57.6 -40.5,94.05 -99,94.05 l -119.25,0 0,-320.4 34.2,0 0,131.85 85.05,0 c 58.5,0 99,36.9 99,94.5 m -34.2,0 c 0,-42.3 -27.9,-63.9 -67.95,-63.9 l -81.9,0 0,127.35 81.9,0 c 40.05,0 67.95,-21.15 67.95,-63.45 m 332.09,-226.35 0,30.6 -164.7,0 0,115.65 140.4,0 0,30.6 -140.4,0 0,112.95 164.7,0 0,30.6 -198.9,0 0,-320.4 z m 291.6,289.8 0,30.6 -219.6,0 0,-30.6 92.7,0 0,-289.8 34.2,0 0,289.8 z m 312.74,-184.05 0,214.65 -34.2,0 0,-211.95 c 0,-48.6 -31.05,-80.55 -77.85,-80.55 -46.8,0 -77.4,31.95 -77.4,80.55 l 0,211.95 -34.2,0 0,-214.65 c 0,-63.9 46.8,-108.45 111.6,-108.45 64.8,0 112.05,44.55 112.05,108.45 m 315,-17.55 c 0,26.55 -9.45,48.6 -27,63.45 -13.5,11.7 -28.35,18 -58.5,22.5 l -35.1,5.4 c -16.65,2.7 -33.3,9 -43.2,17.55 -9.9,8.55 -14.4,21.15 -14.4,36.9 0,35.55 24.75,59.4 67.5,59.4 33.75,0 54.9,-9.45 74.7,-27.45 l 22.05,22.05 c -27.45,24.75 -54.45,35.1 -95.4,35.1 -63.45,0 -102.6,-36 -102.6,-90.45 0,-25.65 8.1,-45.45 24.3,-59.85 13.95,-12.15 33.75,-20.25 58.95,-24.3 l 37.35,-5.85 c 23.4,-3.6 31.5,-6.3 41.85,-15.3 10.35,-9 15.3,-23.4 15.3,-40.05 0,-37.35 -28.8,-59.4 -75.6,-59.4 -36,0 -60.75,8.55 -87.3,35.1 l -23.4,-23.4 c 30.15,-30.15 61.65,-42.3 109.8,-42.3 66.6,0 110.7,34.65 110.7,90.9 m 325.8,-88.2 0,320.4 -34.2,0 0,-143.55 -152.1,0 0,143.55 -34.2,0 0,-320.4 34.2,0 0,146.25 152.1,0 0,-146.25 z m 349.65,0 -117.45,320.4 -28.8,0 -117.9,-320.4 36.45,0 25.65,72.45 139.95,0 25.65,-72.45 z m -72,102.15 -119.7,0 60.3,169.2 z m 355.5,-102.15 0,30.6 -163.8,0 0,289.8 -34.2,0 0,-320.4 z m 291.6,0 0,30.6 -163.8,0 0,289.8 -34.2,0 0,-320.4 z m 127.8,320.4 -34.2,0 0,-320.4 34.2,0 z m 313.2,-30.6 0,30.6 -219.6,0 0,-30.6 92.7,0 0,-289.8 34.19,0 0,289.8 z m 312.74,-184.05 0,214.65 -34.2,0 0,-211.95 c 0,-48.6 -31.05,-80.55 -77.85,-80.55 -46.8,0 -77.4,31.95 -77.4,80.55 l 0,211.95 -34.2,0 0,-214.65 c 0,-63.9 46.8,-108.45 111.6,-108.45 64.8,0 112.05,44.55 112.05,108.45 m 315,-17.55 c 0,26.55 -9.45,48.6 -27,63.45 -13.5,11.7 -28.35,18 -58.5,22.5 l -35.1,5.4 c -16.65,2.7 -33.3,9 -43.2,17.55 -9.9,8.55 -14.4,21.15 -14.4,36.9 0,35.55 24.75,59.4 67.5,59.4 33.75,0 54.9,-9.45 74.7,-27.45 l 22.05,22.05 c -27.45,24.75 -54.45,35.1 -95.4,35.1 -63.45,0 -102.6,-36 -102.6,-90.45 0,-25.65 8.1,-45.45 24.3,-59.85 13.95,-12.15 33.75,-20.25 58.95,-24.3 l 37.35,-5.85 c 23.4,-3.6 31.5,-6.3 41.85,-15.3 10.35,-9 15.3,-23.4 15.3,-40.05 0,-37.35 -28.8,-59.4 -75.6,-59.4 -36,0 -60.75,8.55 -87.3,35.1 l -23.4,-23.4 c 30.15,-30.15 61.65,-42.3 109.8,-42.3 66.6,0 110.7,34.65 110.7,90.9"
           style="fill:#231f20;fill-opacity:1;fill-rule:nonzero;stroke:none"
           id="path16" />
        <path
           d="m 3944.01,2620.54 c -0.93,96.47 -11.87,194.88 -34.16,292.56 -81.21,356.08 -394.19,775.9 -570.37,748.42 -37.05,-5.78 -101.89,-17.94 -189.98,-121.96 31.66,-39.45 64.1,-82.97 96.79,-129.1 64.48,642.41 456.86,-158.42 560.6,-839.72 18.36,-15.12 35.2,-21.86 56.11,-26.23 68.66,-14.29 79.64,62.91 81.01,76.03 m -787.7,589.5 c -80.96,23.25 -165.21,-23.99 -249.98,-114.46 -29.82,-72.99 -60.83,-155.35 -92.97,-248.72 -135.19,-392.59 -303.61,-1119.62 -549.64,-1030.14 -21.42,7.78 -41.83,18.04 -61.22,30.54 -36.85,-61.13 -71.07,-109.22 -102.1,-138.72 -23.05,-22.64 -54.78,-46.1 -92.79,-63.39 466.78,-459.45 1326.49,-440.29 1277.61,130.92 -59.83,699.08 -53.87,981.1 -48.54,1401.77 -24.69,14.1 -51.26,25.23 -80.37,32.2 m -1095.63,-56.43 c 201.93,406.69 506.02,762.17 304.21,739.05 -107.51,-12.33 -219.7,-47.04 -329.1,-101.42 46.66,22.72 94.59,42.46 143.63,58.69 0,0 -418.77,-172.31 -575.25,-664.16 57.94,56.23 126.35,110.48 207.24,161.75 347.41,220.2 -6.14,-219.69 -83.72,-776.56 69.75,90.16 158.06,230.22 258.44,383.02 19.27,70.6 43.95,138.02 74.55,199.63"
           style="fill:#63c54d;fill-opacity:1;fill-rule:nonzero;stroke:none"
           id="path18" />
        <path
           d="m 2973.5,3712.84 c -594.96,362.34 -1352.25,-1674 -1408.95,-1161.99 -146.21,986.71 614.86,1299.07 614.86,1299.07 -489.12,-161.8 -874.02,-659.45 -865.31,-1233.89 8.77,-577.51 331.13,-908.65 447.33,-966.13 147.06,-72.73 275.57,-3.66 338.96,58.62 243.93,231.92 684.54,1608.15 1055.91,1501.53 415.58,-99.54 360.53,-976.11 380.59,-1144.08 39.98,-334.85 133.69,-294.87 264.19,-48.87 87.5,164.94 144.38,354.98 143.13,605.5 0,0 -6.25,-93.72 -81.21,-78.09 -67.35,14.02 -92.49,52.54 -261.93,317.56 -177.34,277.37 -448.55,741.75 -627.57,850.77"
           style="fill:#2b53ac;fill-opacity:1;fill-rule:nonzero;stroke:none"
           id="path20" />
      </g>
    </g>
  </g>
</svg>
