<?xml version="1.0" encoding="utf-8"?>
<!-- Generator: Adobe Illustrator 16.2.1, SVG Export Plug-In . SVG Version: 6.00 Build 0)  -->
<!DOCTYPE svg PUBLIC "-//W3C//DTD SVG 1.1//EN" "http://www.w3.org/Graphics/SVG/1.1/DTD/svg11.dtd">
<svg version="1.1" id="Layer_1" xmlns="http://www.w3.org/2000/svg" xmlns:xlink="http://www.w3.org/1999/xlink" x="0px" y="0px"
	 width="271px" height="70px" viewBox="0 0 271 70" enable-background="new 0 0 271 70" xml:space="preserve">
<path d="M84.208,40.663v5.358c0,1.869,1.157,3.301,3.103,3.301c1.944,0,3.105-1.432,3.105-3.301v-5.358h-1.057v5.005
	c0,1.376-0.417,2.666-2.049,2.666c-1.632,0-2.045-1.29-2.045-2.666v-5.005H84.208L84.208,40.663z"/>
<polygon points="97.544,41.626 99.557,41.626 99.557,40.663 94.47,40.663 94.47,41.626 96.486,41.626 96.486,49.145 97.544,49.145 
	97.544,41.626 "/>
<path fill-rule="evenodd" clip-rule="evenodd" d="M104.733,41.603h0.291c0.993,0,1.803,0.202,1.803,1.398
	c0,1.211-0.822,1.413-1.825,1.413h-0.269V41.603L104.733,41.603z M104.733,45.258h0.654c0.941,0,2.157,0.248,2.157,1.444
	c0,1.2-1.023,1.492-2.003,1.492h-0.808V45.258L104.733,45.258z M103.675,49.145h1.983c1.493,0,2.944-0.679,2.944-2.374
	c0-0.996-0.695-1.972-1.699-2.149v-0.022c0.576-0.271,0.912-0.996,0.912-1.609c0-1.914-1.506-2.326-3.103-2.326h-1.038V49.145
	L103.675,49.145z"/>
<polygon points="114.187,40.663 113.129,40.663 113.129,49.145 114.187,49.145 114.187,40.663 "/>
<polygon points="120.21,40.663 119.152,40.663 119.152,49.145 122.783,49.145 122.783,48.172 120.21,48.172 120.21,40.663 "/>
<path fill-rule="evenodd" clip-rule="evenodd" d="M126.769,49.145h1.72c2.679,0,4.793-1.397,4.793-4.289
	c0-2.828-2.162-4.192-4.758-4.192h-1.756V49.145L126.769,49.145z M127.825,41.626h0.372c2.161,0,4.029,0.8,4.029,3.278
	c0,2.456-1.868,3.268-4.029,3.268h-0.372V41.626L127.825,41.626z"/>
<polygon points="137.728,49.145 138.786,49.145 138.786,42.814 145.153,49.487 145.153,40.663 144.096,40.663 144.096,46.925 
	137.728,40.252 137.728,49.145 "/>
<polygon points="151.179,40.663 150.122,40.663 150.122,49.145 151.179,49.145 151.179,40.663 "/>
<polygon points="156.152,49.145 157.21,49.145 157.21,42.814 163.578,49.487 163.578,40.663 162.521,40.663 162.521,46.925 
	156.152,40.252 156.152,49.145 "/>
<path d="M172.831,44.867v0.966h2.191c-0.042,1.386-1.464,2.524-2.78,2.524c-1.832,0-3.294-1.69-3.294-3.466
	c0-1.902,1.486-3.441,3.388-3.441c1.034,0,2.057,0.551,2.664,1.375l0.744-0.705c-0.834-1.045-2.139-1.644-3.455-1.644
	c-2.443,0-4.399,2.007-4.399,4.447c0,2.354,1.915,4.398,4.287,4.398c2.374,0,4.015-1.787,4.015-4.123v-0.332H172.831L172.831,44.867
	z"/>
<path d="M185.343,41.758c-0.459-0.813-1.235-1.281-2.18-1.281c-1.283,0-2.497,0.822-2.497,2.195c0,1.186,0.875,1.729,1.843,2.149
	l0.583,0.247c0.733,0.306,1.463,0.694,1.463,1.609c0,0.893-0.652,1.656-1.563,1.656c-0.912,0-1.652-0.679-1.642-1.609l-1.068,0.225
	c0.177,1.361,1.246,2.373,2.62,2.373c1.516,0,2.708-1.104,2.708-2.645c0-1.42-0.899-2.079-2.103-2.551l-0.606-0.244
	c-0.529-0.199-1.181-0.547-1.181-1.211c0-0.739,0.741-1.199,1.417-1.199c0.639,0,1.045,0.271,1.363,0.8L185.343,41.758
	L185.343,41.758z"/>
<path d="M194.875,41.758c-0.459-0.813-1.235-1.281-2.18-1.281c-1.286,0-2.497,0.822-2.497,2.195c0,1.186,0.876,1.729,1.845,2.149
	l0.582,0.247c0.734,0.306,1.462,0.694,1.462,1.609c0,0.893-0.652,1.656-1.562,1.656c-0.911,0-1.652-0.679-1.644-1.609l-1.065,0.225
	c0.177,1.361,1.247,2.373,2.62,2.373c1.516,0,2.71-1.104,2.71-2.645c0-1.42-0.899-2.079-2.104-2.551l-0.606-0.244
	c-0.528-0.199-1.18-0.547-1.18-1.211c0-0.739,0.741-1.199,1.415-1.199c0.642,0,1.047,0.271,1.363,0.8L194.875,41.758L194.875,41.758
	z"/>
<polygon points="202.08,41.626 204.094,41.626 204.094,40.663 199.007,40.663 199.007,41.626 201.022,41.626 201.022,49.145 
	202.08,49.145 202.08,41.626 "/>
<polygon points="210.305,45.453 210.305,49.145 211.363,49.145 211.363,45.453 214.13,40.663 212.913,40.663 210.834,44.281 
	208.75,40.663 207.539,40.663 210.305,45.453 "/>
<path fill-rule="evenodd" clip-rule="evenodd" d="M220.839,45.453c1.227-0.148,2.038-1.16,2.038-2.38
	c0-0.801-0.406-1.601-1.116-2.021c-0.675-0.378-1.486-0.389-2.238-0.389h-1.282v8.481h1.058v-3.594h0.435l2.501,3.594h1.281
	L220.839,45.453L220.839,45.453z M219.299,41.603h0.28c1.047,0,2.305,0.19,2.305,1.518c0,1.351-1.168,1.552-2.25,1.552h-0.335
	V41.603L219.299,41.603z"/>
<polygon points="227.73,49.145 232.286,49.145 232.286,48.172 228.787,48.172 228.787,44.964 232.181,44.964 232.181,43.999 
	228.787,43.999 228.787,41.626 232.286,41.626 232.286,40.663 227.73,40.663 227.73,49.145 "/>
<polygon points="238.027,40.663 236.969,40.663 236.969,49.145 240.605,49.145 240.605,48.172 238.027,48.172 238.027,40.663 "/>
<path d="M249.402,41.758c-0.458-0.813-1.235-1.281-2.18-1.281c-1.285,0-2.498,0.822-2.498,2.195c0,1.186,0.877,1.729,1.845,2.149
	l0.583,0.247c0.734,0.306,1.462,0.694,1.462,1.609c0,0.893-0.652,1.656-1.563,1.656c-0.91,0-1.655-0.679-1.644-1.609l-1.069,0.225
	c0.182,1.361,1.251,2.373,2.624,2.373c1.517,0,2.71-1.104,2.71-2.645c0-1.42-0.899-2.079-2.104-2.551l-0.606-0.244
	c-0.528-0.199-1.18-0.547-1.18-1.211c0-0.739,0.741-1.199,1.416-1.199c0.641,0,1.046,0.271,1.364,0.8L249.402,41.758L249.402,41.758
	z"/>
<polygon points="254.323,49.145 258.881,49.145 258.881,48.172 255.379,48.172 255.379,44.964 258.775,44.964 258.775,43.999 
	255.379,43.999 255.379,41.626 258.881,41.626 258.881,40.663 254.323,40.663 254.323,49.145 "/>
<polygon points="263.575,49.145 264.633,49.145 264.633,42.814 271,49.487 271,40.663 269.942,40.663 269.942,46.925 
	263.575,40.252 263.575,49.145 "/>
<path fill-rule="evenodd" clip-rule="evenodd" d="M88.198,21.348c-2.428,0-4.442,1.987-4.442,4.419c0,2.516,1.991,4.417,4.442,4.417
	c2.455,0,4.446-1.901,4.446-4.417C92.644,23.335,90.628,21.348,88.198,21.348L88.198,21.348z M88.198,29.197
	c-1.833,0-3.385-1.493-3.385-3.431c0-1.867,1.395-3.43,3.385-3.43c1.991,0,3.388,1.562,3.388,3.43
	C91.586,27.704,90.035,29.197,88.198,29.197L88.198,29.197z"/>
<path fill-rule="evenodd" clip-rule="evenodd" d="M98.106,26.448h0.605c1.61,0,2.973-0.682,2.973-2.469
	c0-1.551-0.812-2.455-3.424-2.455h-1.212v8.483h1.058V26.448L98.106,26.448z M98.106,22.466h0.278c1.049,0,2.307,0.162,2.307,1.49
	c0,1.351-1.168,1.551-2.25,1.551h-0.335V22.466L98.106,22.466z"/>
<polygon points="106.218,30.008 110.775,30.008 110.775,29.044 107.275,29.044 107.275,25.836 110.674,25.836 110.674,24.863 
	107.275,24.863 107.275,22.488 110.775,22.488 110.775,21.524 106.218,21.524 106.218,30.008 "/>
<polygon points="117.855,22.488 119.87,22.488 119.87,21.524 114.787,21.524 114.787,22.488 116.797,22.488 116.797,30.008 
	117.855,30.008 117.855,22.488 "/>
<path d="M124.047,21.524v5.37c0,1.867,1.157,3.289,3.103,3.289c1.944,0,3.107-1.422,3.107-3.289v-5.37H129.2v5.007
	c0,1.386-0.417,2.666-2.05,2.666s-2.045-1.28-2.045-2.666v-5.007H124.047L124.047,21.524z"/>
<path d="M139.821,22.628c-0.458-0.821-1.234-1.28-2.18-1.28c-1.281,0-2.497,0.816-2.497,2.188c0,1.187,0.876,1.736,1.845,2.15
	l0.583,0.247c0.734,0.303,1.463,0.702,1.463,1.608c0,0.893-0.652,1.656-1.564,1.656c-0.91,0-1.651-0.68-1.639-1.609l-1.069,0.224
	c0.178,1.362,1.247,2.372,2.621,2.372c1.516,0,2.708-1.104,2.708-2.643c0-1.411-0.899-2.08-2.103-2.55l-0.605-0.235
	c-0.527-0.209-1.182-0.552-1.182-1.221c0-0.74,0.742-1.198,1.417-1.198c0.64,0,1.046,0.269,1.363,0.798L139.821,22.628
	L139.821,22.628z"/>
<polygon points="145.487,24.945 145.487,21.524 144.43,21.524 144.43,30.008 145.487,30.008 145.487,25.933 149.524,25.933 
	149.524,30.008 150.581,30.008 150.581,21.524 149.524,21.524 149.524,24.945 145.487,24.945 "/>
<path fill-rule="evenodd" clip-rule="evenodd" d="M160.702,27.881l0.964,2.127h1.139l-4.053-8.846l-4.047,8.846h1.133l0.969-2.127
	H160.702L160.702,27.881z M160.261,26.917h-3.014l1.504-3.431L160.261,26.917L160.261,26.917z"/>
<polygon points="168.174,21.524 167.116,21.524 167.116,30.008 170.752,30.008 170.752,29.044 168.174,29.044 168.174,21.524 "/>
<polygon points="176.105,21.524 175.049,21.524 175.049,30.008 178.684,30.008 178.684,29.044 176.105,29.044 176.105,21.524 "/>
<polygon points="184.004,21.524 182.946,21.524 182.946,30.008 184.004,30.008 184.004,21.524 "/>
<polygon points="191.478,22.488 193.492,22.488 193.492,21.524 188.406,21.524 188.406,22.488 190.421,22.488 190.421,30.008 
	191.478,30.008 191.478,22.488 "/>
<path d="M197.667,21.524v5.37c0,1.867,1.157,3.289,3.107,3.289c1.944,0,3.102-1.422,3.102-3.289v-5.37h-1.057v5.007
	c0,1.386-0.417,2.666-2.045,2.666c-1.632,0-2.051-1.28-2.051-2.666v-5.007H197.667L197.667,21.524z"/>
<path d="M213.445,22.628c-0.462-0.821-1.24-1.28-2.185-1.28c-1.282,0-2.497,0.816-2.497,2.188c0,1.187,0.881,1.736,1.845,2.15
	l0.587,0.247c0.729,0.303,1.462,0.702,1.462,1.608c0,0.893-0.652,1.656-1.562,1.656c-0.91,0-1.655-0.68-1.645-1.609l-1.068,0.224
	c0.182,1.362,1.251,2.372,2.619,2.372c1.522,0,2.714-1.104,2.714-2.643c0-1.411-0.899-2.08-2.104-2.55l-0.61-0.235
	c-0.527-0.209-1.18-0.552-1.18-1.221c0-0.74,0.745-1.198,1.421-1.198c0.64,0,1.045,0.269,1.357,0.798L213.445,22.628L213.445,22.628
	z"/>
<polygon fill="#FFD400" points="11.279,23.72 22.556,34.997 11.279,46.272 0,34.994 11.279,23.72 "/>
<polygon fill="#F7941E" points="22.556,12.436 33.83,23.723 22.556,34.997 11.279,23.72 22.556,12.436 "/>
<polygon fill="#ED1C24" points="33.83,1.16 45.106,12.44 33.83,23.723 22.556,12.436 33.83,1.16 "/>
<polygon fill="#8DC63F" points="22.556,34.997 33.83,46.277 22.556,57.56 11.279,46.272 22.556,34.997 "/>
<polygon fill="#FFFFFF" points="33.83,23.723 45.106,35.003 33.83,46.277 22.556,34.997 33.83,23.723 "/>
<polygon fill="#92278F" points="45.108,12.44 56.385,23.728 45.106,35.003 33.83,23.723 45.108,12.44 "/>
<polygon fill="#00A651" points="33.83,46.277 45.106,57.564 33.83,68.84 22.556,57.56 33.83,46.277 "/>
<polygon fill="#00707E" points="45.108,35.003 56.385,46.28 45.106,57.564 33.83,46.277 45.108,35.003 "/>
<polygon fill="#2E3192" points="56.385,23.728 67.664,35.006 56.385,46.28 45.108,35.003 56.385,23.728 "/>
</svg>
