<?xml version="1.0" encoding="utf-8"?>
<!-- Generator: Adobe Illustrator 17.1.0, SVG Export Plug-In . SVG Version: 6.00 Build 0)  -->
<!DOCTYPE svg PUBLIC "-//W3C//DTD SVG 1.1//EN" "http://www.w3.org/Graphics/SVG/1.1/DTD/svg11.dtd">
<svg version="1.1" id="Layer_1" xmlns="http://www.w3.org/2000/svg" xmlns:xlink="http://www.w3.org/1999/xlink" x="0px" y="0px"
	 width="50px" height="1700px" viewBox="0 0 50 1700" enable-background="new 0 0 50 1700" xml:space="preserve">
<path fill="#FFFFFF" d="M8.604,307.832c-0.646,0.372-1.05,1.126-1.05,1.443c0,0.241-0.187,0.525-0.437,0.525H4.491
	c-0.241,0-0.394-0.372-0.394-0.613v-0.492c0-1.324,1.313-2.461,2.275-2.898c0.842-0.383,1.192-0.744,1.192-1.443
	c0-0.613-0.798-1.16-1.684-1.16c-0.493,0-0.94,0.154-1.182,0.318c-0.261,0.186-0.524,0.448-1.17,1.258
	c-0.087,0.109-0.218,0.174-0.338,0.174c-0.099,0-0.186-0.032-0.273-0.087l-1.793-1.367c-0.186-0.142-0.23-0.383-0.11-0.579
	c1.181-1.958,2.844-2.91,5.075-2.91c2.34,0,4.966,1.871,4.966,4.375C11.054,306.453,9.643,307.251,8.604,307.832z M7.597,313.562
	C7.597,313.803,7.4,314,7.16,314H4.535c-0.24,0-0.438-0.197-0.438-0.438v-2.625c0-0.241,0.197-0.438,0.438-0.438H7.16
	c0.24,0,0.437,0.197,0.437,0.438V313.562z"/>
<path fill="#000100" d="M7.5,605.25h-7c-0.273,0-0.5-0.227-0.5-0.5c0-0.133,0.055-0.258,0.148-0.352l3.5-3.5
	c0.094-0.094,0.219-0.148,0.352-0.148s0.258,0.055,0.352,0.148l3.5,3.5C7.945,604.492,8,604.617,8,604.75
	C8,605.023,7.773,605.25,7.5,605.25z"/>
<path fill="#000100" d="M7.852,707.852l-3.5,3.5C4.258,711.445,4.133,711.5,4,711.5s-0.258-0.055-0.352-0.148l-3.5-3.5
	C0.055,707.758,0,707.633,0,707.5c0-0.273,0.227-0.5,0.5-0.5h7c0.273,0,0.5,0.227,0.5,0.5C8,707.633,7.945,707.758,7.852,707.852z"
	/>
<path fill="#000100" d="M7.5,705h-7c-0.273,0-0.5-0.227-0.5-0.5c0-0.133,0.055-0.258,0.148-0.352l3.5-3.5
	C3.742,700.555,3.867,700.5,4,700.5s0.258,0.055,0.352,0.148l3.5,3.5C7.945,704.242,8,704.367,8,704.5C8,704.773,7.773,705,7.5,705z
	"/>
<path fill="#000100" d="M7.852,651.602l-3.5,3.5C4.258,655.195,4.133,655.25,4,655.25s-0.258-0.055-0.352-0.148l-3.5-3.5
	C0.055,651.508,0,651.383,0,651.25c0-0.273,0.227-0.5,0.5-0.5h7c0.273,0,0.5,0.227,0.5,0.5C8,651.383,7.945,651.508,7.852,651.602z"
	/>
<path fill="#FFFFFF" d="M8.072,106.294l-5.656-5.656c-0.392-0.392-1.025-0.391-1.415-0.001l-0.708,0.708
	c-0.391,0.39-0.39,1.023,0.001,1.414l4.242,4.242l-4.242,4.242c-0.391,0.391-0.391,1.024,0,1.415l0,0L1,113.364L1,113.365
	c0.391,0.39,1.025,0.389,1.414,0l5.656-5.657C8.462,107.317,8.46,106.682,8.072,106.294z"/>
<path fill="#FFFFFF" d="M13,100.343h-1c-0.553,0-1,0.448-1,1v11.313c0,0.553,0.447,1,1,1h1c0.552,0,1-0.447,1-1v-11.313
	C14,100.791,13.552,100.343,13,100.343z"/>
<path fill="#FFFFFF" d="M5.928,156.294l5.656-5.656c0.392-0.392,1.025-0.391,1.415-0.001l0.708,0.708
	c0.391,0.39,0.39,1.024-0.001,1.414l-4.242,4.242l4.242,4.242c0.391,0.391,0.391,1.024,0,1.415l0,0L13,163.364L13,163.365
	c-0.391,0.39-1.025,0.389-1.414,0l-5.656-5.657C5.538,157.317,5.54,156.682,5.928,156.294z"/>
<path fill="#FFFFFF" d="M1,150.343h1c0.553,0,1,0.448,1,1v11.313c0,0.553-0.447,1-1,1H1c-0.552,0-1-0.447-1-1v-11.313
	C0,150.792,0.448,150.343,1,150.343z"/>
<path fill="#FFFFFF" d="M8.89,6.293L3.234,0.637c-0.393-0.392-1.025-0.391-1.416,0L1.111,1.344c-0.391,0.39-0.391,1.023,0,1.414
	L5.353,7l-4.242,4.243c-0.391,0.39-0.391,1.024,0,1.415l0,0l0.707,0.706v0.001c0.391,0.39,1.025,0.389,1.414,0l5.656-5.657
	C9.281,7.316,9.279,6.682,8.89,6.293z"/>
<path fill="#FFFFFF" d="M1.11,56.293l5.656-5.656c0.393-0.392,1.025-0.391,1.416,0l0.707,0.708c0.391,0.39,0.391,1.023,0,1.414
	L4.647,57l4.242,4.243c0.391,0.39,0.391,1.024,0,1.415l0,0l-0.707,0.706v0.001c-0.391,0.39-1.025,0.389-1.414,0l-5.656-5.657
	C0.719,57.316,0.721,56.682,1.11,56.293z"/>
<path fill="#107EA2" d="M17,1157h-6v-6c0-0.553-0.448-1-1-1H8c-0.553,0-1,0.447-1,1v6H1c-0.553,0-1,0.448-1,1v2c0,0.553,0.447,1,1,1
	h6v6c0,0.553,0.447,1,1,1h2c0.552,0,1-0.447,1-1v-6h6c0.553,0,1-0.447,1-1v-2C18,1157.448,17.553,1157,17,1157z"/>
<path fill="#0C5F7A" d="M17,1207h-6v-6c0-0.553-0.448-1-1-1H8c-0.553,0-1,0.447-1,1v6H1c-0.553,0-1,0.448-1,1v2c0,0.553,0.447,1,1,1
	h6v6c0,0.553,0.447,1,1,1h2c0.552,0,1-0.447,1-1v-6h6c0.553,0,1-0.447,1-1v-2C18,1207.448,17.553,1207,17,1207z"/>
<path fill="#107EA2" d="M12.243,1250.929L8,1255.171l-4.243-4.242c-0.39-0.391-1.023-0.391-1.414,0l-1.414,1.414
	c-0.391,0.391-0.391,1.023,0,1.414l4.242,4.242l-4.242,4.242c-0.391,0.391-0.391,1.025,0,1.414l1.414,1.416
	c0.391,0.391,1.023,0.391,1.414,0L8,1260.827l4.243,4.244c0.391,0.391,1.023,0.391,1.414,0l1.414-1.416
	c0.391-0.389,0.391-1.023,0-1.414l-4.242-4.242l4.242-4.242c0.391-0.391,0.391-1.023,0-1.414l-1.414-1.414
	C13.267,1250.538,12.634,1250.538,12.243,1250.929z"/>
<path fill="#0C5F7A" d="M12.243,1300.929L8,1305.171l-4.243-4.242c-0.39-0.391-1.023-0.391-1.414,0l-1.414,1.414
	c-0.391,0.391-0.391,1.023,0,1.414l4.242,4.242l-4.242,4.242c-0.391,0.391-0.391,1.025,0,1.414l1.414,1.416
	c0.391,0.391,1.023,0.391,1.414,0L8,1310.827l4.243,4.244c0.391,0.391,1.023,0.391,1.414,0l1.414-1.416
	c0.391-0.389,0.391-1.023,0-1.414l-4.242-4.242l4.242-4.242c0.391-0.391,0.391-1.023,0-1.414l-1.414-1.414
	C13.267,1300.538,12.634,1300.538,12.243,1300.929z"/>
<path fill="#FFFFFF" d="M12.246,208.24C11.16,209.327,9.659,210,8,210c-1.659,0-3.161-0.673-4.247-1.76
	C1.505,209.655,0,212.145,0,215c0,0.552,0.448,1,1,1h14c0.552,0,1-0.448,1-1C16,212.145,14.496,209.655,12.246,208.24z"/>
<circle fill="#FFFFFF" cx="8" cy="204" r="4"/>
<path fill="#FFFFFF" d="M22.246,258.24C21.16,259.327,19.659,260,18,260c-1.659,0-3.161-0.673-4.247-1.76
	C11.505,259.655,10,262.146,10,265c0,0.552,0.448,1,1,1h14c0.552,0,1-0.448,1-1C26,262.146,24.496,259.655,22.246,258.24z"/>
<circle fill="#FFFFFF" cx="18" cy="254" r="4"/>
<path d="M19.192,551.759l-1.412-1.415c-0.391-0.392-1.024-0.391-1.416,0l-6.363,6.363l-6.364-6.364
	c-0.393-0.392-1.025-0.39-1.415,0.002l-1.414,1.414c-0.392,0.388-0.391,1.023-0.001,1.412l8.484,8.485l0,0l0.002,0.001
	c0.389,0.39,1.025,0.391,1.415-0.001l8.484-8.486C19.583,552.782,19.583,552.146,19.192,551.759z"/>
<path d="M19.192,510.241l-1.412,1.415c-0.391,0.392-1.024,0.391-1.416,0l-6.362-6.363l-6.364,6.364
	c-0.393,0.392-1.025,0.39-1.415-0.002l-1.414-1.414c-0.392-0.388-0.391-1.023-0.001-1.412l8.484-8.485l0,0l0.002-0.001
	c0.389-0.39,1.025-0.391,1.415,0.001l8.483,8.486C19.583,509.218,19.583,509.853,19.192,510.241z"/>
<path d="M5.171,1361.305l-4.242-4.244c-0.389-0.387-0.391-1.023,0-1.412l0.707-0.709c0.391-0.391,1.025-0.387,1.414,0l2.828,2.828
	l7.07-7.07c0.392-0.391,1.023-0.391,1.414,0l0.709,0.707c0.39,0.391,0.393,1.025,0,1.414l-8.486,8.486
	C6.194,1361.695,5.562,1361.695,5.171,1361.305z"/>
<path fill="#FFFFFF" d="M5.171,361.304l-4.242-4.244c-0.389-0.387-0.391-1.023,0-1.412l0.707-0.709c0.391-0.391,1.025-0.387,1.414,0
	l2.828,2.828l7.07-7.07c0.392-0.391,1.023-0.391,1.414,0l0.709,0.707c0.39,0.391,0.393,1.025,0,1.414l-8.486,8.486
	C6.194,361.695,5.562,361.695,5.171,361.304z"/>
<path fill="#FFFFFF" d="M11.305,409.183L8.121,406l3.182-3.182c0.392-0.391,0.39-1.023,0-1.414l-0.707-0.707
	c-0.392-0.391-1.022-0.391-1.413,0l-3.182,3.182l-3.183-3.183c-0.392-0.392-1.024-0.389-1.414,0l-0.708,0.708
	c-0.391,0.391-0.391,1.023,0,1.414l3.182,3.184l-3.182,3.182c-0.391,0.391-0.391,1.022,0,1.414l0.707,0.707
	c0.392,0.389,1.023,0.391,1.414,0l3.182-3.182l3.184,3.182c0.39,0.391,1.023,0.39,1.413,0l0.709-0.707
	C11.693,410.207,11.694,409.574,11.305,409.183z"/>
<path fill="#ED1C24" d="M11.305,1509.183l-3.184-3.184l3.182-3.182c0.392-0.391,0.39-1.023,0-1.414l-0.707-0.707
	c-0.392-0.391-1.022-0.391-1.413,0l-3.182,3.182l-3.183-3.183c-0.392-0.392-1.024-0.389-1.414,0l-0.708,0.708
	c-0.391,0.391-0.391,1.023,0,1.414l3.182,3.184l-3.182,3.182c-0.391,0.391-0.391,1.022,0,1.414l0.707,0.707
	c0.392,0.389,1.023,0.391,1.414,0l3.182-3.182l3.184,3.182c0.39,0.391,1.023,0.39,1.413,0l0.709-0.707
	C11.693,1510.206,11.694,1509.573,11.305,1509.183z"/>
<path fill="#FFFFFF" d="M13.002,455.5H8.5l-0.001-4.499c0.002-0.553-0.447-1-1-1H6.5c-0.554,0-0.999,0.446-0.999,0.999v4.499H0.999
	c-0.553,0-0.998,0.449-0.999,1l-0.001,1.002c0.001,0.552,0.449,1,1,1l4.502,0.001v4.499c0,0.553,0.447,1,1,1h1
	c0.551-0.002,0.999-0.447,1-1L8.5,458.502L13,458.501c0.552,0,1-0.449,1-1l0.001-1.001C14,455.948,13.553,455.501,13.002,455.5z"/>
<path fill="#FFFFFF" d="M8.003,256.999H5.501L5.5,254.5c0.002-0.553-0.447-1-1-1h0.001c-0.554,0-0.999,0.446-0.999,0.999v2.499H1
	c-0.553,0-0.998,0.449-0.999,1L0,258c0.001,0.552,0.449,1,1,1l2.502,0.001v2.499c0,0.553,0.447,1,1,1l0,0
	c0.551-0.002,0.999-0.447,1-1l-0.001-2.499L8.002,259c0.552,0,1-0.449,1-1l0.001-0.001C9.002,257.447,8.555,257,8.003,256.999z"/>
<path fill="#107EA2" d="M20.753,754.782l-3.535-3.535c-0.391-0.391-1.024-0.391-1.414,0l-2.829,2.828l4.95,4.949l2.828-2.828
	C21.144,755.806,21.144,755.173,20.753,754.782z"/>
<path fill="#107EA2" d="M12.268,754.782L0.954,766.097v4.949h4.949l11.314-11.315L12.268,754.782z M4.843,763.621l7.071-7.071
	c0.196-0.195,0.512-0.195,0.706,0c0.197,0.195,0.196,0.511,0.001,0.707l-7.071,7.071v0.001c-0.195,0.194-0.512,0.195-0.707-0.002
	C4.647,764.133,4.647,763.816,4.843,763.621L4.843,763.621z M5.55,769.985H3.782v-1.768H2.015v-1.768l1.768-1.769l3.535,3.536
	L5.55,769.985z"/>
<path fill="#0C5F7A" d="M20.753,804.782l-3.535-3.535c-0.391-0.391-1.024-0.391-1.414,0l-2.829,2.828l4.95,4.949l2.828-2.828
	C21.144,805.806,21.144,805.173,20.753,804.782z"/>
<path fill="#0C5F7A" d="M12.268,804.782L0.954,816.097v4.949h4.949l11.314-11.315L12.268,804.782z M4.843,813.621l7.071-7.071
	c0.196-0.195,0.512-0.195,0.706,0c0.197,0.195,0.196,0.511,0.001,0.707l-7.071,7.071v0.001c-0.195,0.194-0.512,0.195-0.707-0.002
	C4.647,814.133,4.647,813.816,4.843,813.621L4.843,813.621z M5.55,819.985H3.782v-1.768H2.015v-1.768l1.768-1.769l3.535,3.536
	L5.55,819.985z"/>
<path fill="#FFFFFF" d="M17,1053h-2v-1c0-1.104-0.896-2-2-2c-1.106,0-2,0.896-2,2h-0.001v1H7v-1l0,0c0-1.104-0.896-2-2-2
	s-2,0.896-2,2v1H1c-0.553,0-1,0.447-1,1v13c0,0.552,0.447,1,1,1l0,0h16c0.553,0,1-0.448,1-1v-13C18,1053.447,17.553,1053,17,1053z
	 M12,1052c0-0.553,0.447-1,1-1c0.552,0,1,0.447,1,1v2c0,0.553-0.448,1-1,1c-0.553,0-1-0.447-1-1V1052z M4,1052c0-0.553,0.447-1,1-1
	s1,0.447,1,1v2c0,0.553-0.447,1-1,1s-1-0.447-1-1V1052z M16,1066H2v-9h14V1066z"/>
<path fill="#0C5F7A" d="M17,1103h-2v-1c0-1.104-0.896-2-2-2c-1.106,0-2,0.896-2,2h-0.001v1H7v-1l0,0c0-1.104-0.896-2-2-2
	s-2,0.896-2,2v1H1c-0.553,0-1,0.447-1,1v13c0,0.552,0.447,1,1,1l0,0h16c0.553,0,1-0.448,1-1v-13C18,1103.447,17.553,1103,17,1103z
	 M12,1102c0-0.553,0.447-1,1-1c0.552,0,1,0.447,1,1v2c0,0.553-0.448,1-1,1c-0.553,0-1-0.447-1-1V1102z M4,1102c0-0.553,0.447-1,1-1
	s1,0.447,1,1v2c0,0.553-0.447,1-1,1s-1-0.447-1-1V1102z M16,1116H2v-9h14V1116z"/>
<path fill="#107EA2" d="M20,850H2c-1.104,0-2,0.896-2,2v14c0,1.104,0.896,2,2,2h18c1.104,0,2-0.896,2-2v-14
	C22,850.896,21.104,850,20,850z M19.999,852l-8.292,8.292c-0.391,0.39-1.023,0.392-1.414,0L2,852H19.999z M19,866H3
	c-0.553,0-1-0.447-1-1v-10.172l7.586,7.585c0.781,0.782,2.047,0.782,2.828,0.001L20,854.828V865C20,865.553,19.553,866,19,866z"/>
<path fill="#0C5F7A" d="M20,900H2c-1.104,0-2,0.896-2,2v14c0,1.104,0.896,2,2,2h18c1.104,0,2-0.896,2-2v-14
	C22,900.896,21.104,900,20,900z M19.999,902l-8.292,8.292c-0.391,0.39-1.023,0.392-1.414,0L2,902H19.999z M19,916H3
	c-0.553,0-1-0.447-1-1v-10.172l7.586,7.585c0.781,0.782,2.047,0.782,2.828,0.001L20,904.828V915C20,915.553,19.553,916,19,916z"/>
<path fill="#107EA2" d="M19,957v-2l-5-5H4c-0.553,0-1,0.447-1,1v6c-1.656,0-3,1.344-3,3v5c0,0.553,0.447,1,1,1h2v3
	c0,0.553,0.447,1,1,1h14c0.553,0,1-0.447,1-1v-3h2c0.553,0,1-0.447,1-1v-5C22,958.344,20.656,957,19,957z M17,968H5v-4h12V968z
	 M17,959H5v-7h9v2c0,0.553,0.447,1,1,1h2V959z M18,960c0-0.553,0.447-1,1-1s1,0.447,1,1s-0.447,1-1,1S18,960.553,18,960z"/>
<path fill="#0C5F7A" d="M19,1007v-2l-5-5H4c-0.553,0-1,0.447-1,1v6c-1.656,0-3,1.344-3,3v5c0,0.553,0.447,1,1,1h2v3
	c0,0.553,0.447,1,1,1h14c0.553,0,1-0.447,1-1v-3h2c0.553,0,1-0.447,1-1v-5C22,1008.344,20.656,1007,19,1007z M17,1018H5v-4h12V1018z
	 M17,1009H5v-7h9v2c0,0.553,0.447,1,1,1h2V1009z M18,1010c0-0.553,0.447-1,1-1s1,0.447,1,1s-0.447,1-1,1S18,1010.553,18,1010z"/>
<path fill="#FFFFFF" d="M13.649,1407.063l-2.298-6.127C11.158,1400.421,10.55,1400,10,1400H8v4h3l-4,4l-4-4h3v-4H4
	c-0.55,0-1.158,0.421-1.351,0.937l-2.298,6.127C0.158,1407.579,0,1408.45,0,1409v4c0,0.55,0.45,1,1,1h12c0.55,0,1-0.45,1-1v-4
	C14,1408.45,13.842,1407.579,13.649,1407.063z M12,1411c0,0.55-0.45,1-1,1H3c-0.55,0-1-0.45-1-1v-1c0-0.55,0.45-1,1-1h8
	c0.55,0,1,0.45,1,1V1411z"/>
<path fill="#FFFFFF" d="M5,1454v-4l-5,6l5,6v-4c4.971,0,9,2.688,9,6C14,1458.477,9.971,1454,5,1454z"/>
<path fill="#FFFFFF" d="M7.852,1551.602l-3.5,3.5c-0.094,0.094-0.219,0.148-0.352,0.148s-0.258-0.055-0.352-0.148l-3.5-3.5
	C0.055,1551.508,0,1551.383,0,1551.25c0-0.273,0.227-0.5,0.5-0.5h7c0.273,0,0.5,0.227,0.5,0.5
	C8,1551.383,7.945,1551.508,7.852,1551.602z"/>
<path fill="#FFFFFF" d="M17.707,1615.585l-4.815-4.815c0.698-1.089,1.108-2.38,1.108-3.77c0-3.866-3.136-7-7-7c-3.864,0-7,3.134-7,7
	s3.136,7,7,7c1.389,0,2.681-0.41,3.77-1.108l4.816,4.815c0.391,0.391,1.023,0.391,1.414,0l0.707-0.707
	C18.098,1616.609,18.098,1615.977,17.707,1615.585z M7,1612c-2.76,0-5-2.238-5-5s2.24-5,5-5s5,2.238,5,5S9.76,1612,7,1612z"/>
<g>
	<polygon fill-rule="evenodd" clip-rule="evenodd" fill="#FFFFFF" points="9,1662 9,1664 2,1664 2,1652 9,1652 9,1654 11,1654 
		11,1650 0,1650 0,1666 11,1666 11,1662 	"/>
	<polygon fill-rule="evenodd" clip-rule="evenodd" fill="#FFFFFF" points="17,1658 13,1654 13,1656 6,1656 6,1660 13,1660 13,1662 	
		"/>
</g>
</svg>
