<?xml version="1.0" encoding="utf-8"?>
<!-- Generator: Adobe Illustrator 16.2.1, SVG Export Plug-In . SVG Version: 6.00 Build 0)  -->
<!DOCTYPE svg PUBLIC "-//W3C//DTD SVG 1.1//EN" "http://www.w3.org/Graphics/SVG/1.1/DTD/svg11.dtd">
<svg version="1.1" id="Layer_1" xmlns="http://www.w3.org/2000/svg" xmlns:xlink="http://www.w3.org/1999/xlink" x="0px" y="0px"
	 width="246px" height="62px" viewBox="0 0 246 62" enable-background="new 0 0 246 62" xml:space="preserve">
<g display="none">
	<g display="inline">
		<path d="M76.408,36.135v4.869c0,1.693,1.053,2.99,2.818,2.99s2.816-1.297,2.816-2.99v-4.869h-0.959v4.543
			c0,1.254-0.377,2.418-1.857,2.418s-1.857-1.164-1.857-2.418v-4.543H76.408L76.408,36.135z"/>
		<polygon points="88.51,37.012 90.338,37.012 90.338,36.135 85.725,36.135 85.725,37.012 87.551,37.012 87.551,43.832 
			88.51,43.832 88.51,37.012 		"/>
		<path fill-rule="evenodd" clip-rule="evenodd" d="M95.035,36.992h0.266c0.898,0,1.633,0.184,1.633,1.264
			c0,1.104-0.744,1.287-1.652,1.287h-0.246V36.992L95.035,36.992z M95.035,40.309h0.593c0.856,0,1.96,0.225,1.96,1.307
			c0,1.092-0.93,1.358-1.816,1.358h-0.736V40.309L95.035,40.309z M94.076,43.832h1.797c1.357,0,2.674-0.614,2.674-2.154
			c0-0.898-0.633-1.786-1.542-1.951v-0.02c0.521-0.244,0.827-0.897,0.827-1.461c0-1.735-1.367-2.111-2.816-2.111h-0.939V43.832
			L94.076,43.832z"/>
		<polygon points="103.613,36.135 102.654,36.135 102.654,43.832 103.613,43.832 103.613,36.135 		"/>
		<polygon points="109.077,36.135 108.117,36.135 108.117,43.832 111.414,43.832 111.414,42.953 109.077,42.953 109.077,36.135 		
			"/>
		<path fill-rule="evenodd" clip-rule="evenodd" d="M115.03,43.832h1.562c2.43,0,4.349-1.268,4.349-3.891
			c0-2.562-1.96-3.807-4.317-3.807h-1.593V43.832L115.03,43.832z M115.99,37.012h0.336c1.96,0,3.654,0.726,3.654,2.97
			c0,2.237-1.694,2.972-3.654,2.972h-0.336V37.012L115.99,37.012z"/>
		<polygon points="124.976,43.832 125.936,43.832 125.936,38.094 131.713,44.148 131.713,36.135 130.753,36.135 130.753,41.819 
			124.976,35.768 124.976,43.832 		"/>
		<polygon points="137.179,36.135 136.22,36.135 136.22,43.832 137.179,43.832 137.179,36.135 		"/>
		<polygon points="141.693,43.832 142.652,43.832 142.652,38.094 148.43,44.148 148.43,36.135 147.472,36.135 147.472,41.819 
			141.693,35.768 141.693,43.832 		"/>
		<path d="M156.827,39.951v0.878h1.989c-0.041,1.257-1.327,2.286-2.521,2.286c-1.664,0-2.99-1.53-2.99-3.144
			c0-1.726,1.348-3.122,3.072-3.122c0.939,0,1.869,0.498,2.42,1.254l0.674-0.643c-0.756-0.95-1.94-1.488-3.135-1.488
			c-2.215,0-3.99,1.814-3.99,4.031c0,2.132,1.734,3.99,3.888,3.99c2.155,0,3.646-1.624,3.646-3.736v-0.307H156.827L156.827,39.951z"
			/>
		<path d="M168.182,37.134c-0.418-0.745-1.123-1.161-1.979-1.161c-1.165,0-2.268,0.742-2.268,1.989c0,1.072,0.796,1.571,1.674,1.95
			l0.531,0.225c0.662,0.273,1.327,0.633,1.327,1.458c0,0.808-0.593,1.501-1.419,1.501c-0.828,0-1.501-0.613-1.49-1.459l-0.971,0.202
			c0.164,1.237,1.133,2.155,2.379,2.155c1.377,0,2.46-1,2.46-2.399c0-1.286-0.817-1.888-1.909-2.316l-0.551-0.214
			c-0.48-0.186-1.072-0.502-1.072-1.103c0-0.673,0.675-1.093,1.287-1.093c0.58,0,0.948,0.244,1.235,0.724L168.182,37.134
			L168.182,37.134z"/>
		<path d="M176.831,37.134c-0.419-0.745-1.124-1.161-1.979-1.161c-1.165,0-2.268,0.742-2.268,1.989c0,1.072,0.797,1.571,1.675,1.95
			l0.531,0.225c0.663,0.273,1.327,0.633,1.327,1.458c0,0.808-0.593,1.501-1.42,1.501c-0.826,0-1.5-0.613-1.489-1.459l-0.97,0.202
			c0.163,1.237,1.133,2.155,2.377,2.155c1.378,0,2.461-1,2.461-2.399c0-1.286-0.816-1.888-1.908-2.316l-0.553-0.214
			c-0.479-0.186-1.07-0.502-1.07-1.103c0-0.673,0.673-1.093,1.285-1.093c0.582,0,0.949,0.244,1.235,0.724L176.831,37.134
			L176.831,37.134z"/>
		<polygon points="183.367,37.012 185.193,37.012 185.193,36.135 180.58,36.135 180.58,37.012 182.408,37.012 182.408,43.832 
			183.367,43.832 183.367,37.012 		"/>
		<polygon points="190.83,40.482 190.83,43.832 191.791,43.832 191.791,40.482 194.301,36.135 193.197,36.135 191.311,39.42 
			189.422,36.135 188.319,36.135 190.83,40.482 		"/>
		<path fill-rule="evenodd" clip-rule="evenodd" d="M200.391,40.482c1.111-0.132,1.848-1.053,1.848-2.154
			c0-0.735-0.368-1.459-1.012-1.838c-0.611-0.346-1.348-0.355-2.031-0.355h-1.164v7.697h0.961v-3.258h0.396l2.268,3.258h1.162
			L200.391,40.482L200.391,40.482z M198.992,36.992h0.254c0.949,0,2.094,0.172,2.094,1.379c0,1.224-1.062,1.406-2.041,1.406h-0.307
			V36.992L198.992,36.992z"/>
		<polygon points="206.643,43.832 210.775,43.832 210.775,42.953 207.602,42.953 207.602,40.044 210.684,40.044 210.684,39.166 
			207.602,39.166 207.602,37.012 210.775,37.012 210.775,36.135 206.643,36.135 206.643,43.832 		"/>
		<polygon points="215.986,36.135 215.027,36.135 215.027,43.832 218.324,43.832 218.324,42.953 215.986,42.953 215.986,36.135 		
			"/>
		<path d="M226.309,37.134c-0.418-0.745-1.123-1.161-1.979-1.161c-1.163,0-2.267,0.742-2.267,1.989c0,1.072,0.797,1.571,1.674,1.95
			l0.531,0.225c0.664,0.273,1.326,0.633,1.326,1.458c0,0.808-0.592,1.501-1.418,1.501s-1.502-0.613-1.49-1.459l-0.97,0.202
			c0.163,1.237,1.134,2.155,2.378,2.155c1.379,0,2.461-1,2.461-2.399c0-1.286-0.816-1.888-1.909-2.316l-0.552-0.214
			c-0.479-0.186-1.071-0.502-1.071-1.103c0-0.673,0.673-1.093,1.285-1.093c0.583,0,0.95,0.244,1.237,0.724L226.309,37.134
			L226.309,37.134z"/>
		<polygon points="230.773,43.832 234.907,43.832 234.907,42.953 231.732,42.953 231.732,40.044 234.814,40.044 234.814,39.166 
			231.732,39.166 231.732,37.012 234.907,37.012 234.907,36.135 230.773,36.135 230.773,43.832 		"/>
		<polygon points="239.169,43.832 240.129,43.832 240.129,38.094 245.906,44.148 245.906,36.135 244.946,36.135 244.946,41.819 
			239.169,35.768 239.169,43.832 		"/>
		<path fill-rule="evenodd" clip-rule="evenodd" d="M80.033,18.607c-2.205,0-4.031,1.808-4.031,4.012
			c0,2.286,1.806,4.012,4.031,4.012c2.225,0,4.032-1.726,4.032-4.012C84.065,20.415,82.237,18.607,80.033,18.607L80.033,18.607z
			 M80.033,25.734c-1.665,0-3.073-1.359-3.073-3.114c0-1.694,1.267-3.112,3.073-3.112s3.072,1.417,3.072,3.112
			C83.105,24.375,81.696,25.734,80.033,25.734L80.033,25.734z"/>
		<path fill-rule="evenodd" clip-rule="evenodd" d="M89.021,23.243h0.551c1.46,0,2.695-0.623,2.695-2.247
			c0-1.409-0.735-2.224-3.103-2.224h-1.104v7.696h0.96V23.243L89.021,23.243z M89.021,19.63h0.255c0.949,0,2.094,0.142,2.094,1.346
			c0,1.225-1.062,1.409-2.042,1.409h-0.307V19.63L89.021,19.63z"/>
		<polygon points="96.383,26.468 100.518,26.468 100.518,25.59 97.343,25.59 97.343,22.682 100.426,22.682 100.426,21.804 
			97.343,21.804 97.343,19.65 100.518,19.65 100.518,18.772 96.383,18.772 96.383,26.468 		"/>
		<polygon points="106.943,19.65 108.771,19.65 108.771,18.772 104.156,18.772 104.156,19.65 105.983,19.65 105.983,26.468 
			106.943,26.468 106.943,19.65 		"/>
		<path d="M112.561,18.772v4.869c0,1.694,1.051,2.991,2.816,2.991s2.816-1.296,2.816-2.991v-4.869h-0.959v4.543
			c0,1.254-0.377,2.419-1.857,2.419s-1.857-1.165-1.857-2.419v-4.543H112.561L112.561,18.772z"/>
		<path d="M126.875,19.772c-0.417-0.746-1.121-1.165-1.979-1.165c-1.163,0-2.266,0.746-2.266,1.992c0,1.071,0.796,1.571,1.674,1.949
			l0.53,0.225c0.665,0.275,1.328,0.632,1.328,1.46c0,0.807-0.592,1.501-1.42,1.501c-0.826,0-1.5-0.613-1.49-1.461l-0.969,0.205
			c0.163,1.235,1.133,2.154,2.378,2.154c1.378,0,2.46-1,2.46-2.398c0-1.287-0.816-1.888-1.908-2.316l-0.552-0.215
			c-0.479-0.184-1.071-0.501-1.071-1.102c0-0.674,0.674-1.092,1.286-1.092c0.581,0,0.95,0.244,1.235,0.723L126.875,19.772
			L126.875,19.772z"/>
		<polygon points="132.014,21.875 132.014,18.772 131.055,18.772 131.055,26.468 132.014,26.468 132.014,22.773 135.679,22.773 
			135.679,26.468 136.637,26.468 136.637,18.772 135.679,18.772 135.679,21.875 132.014,21.875 		"/>
		<path fill-rule="evenodd" clip-rule="evenodd" d="M145.82,24.54l0.877,1.929h1.031l-3.676-8.023l-3.674,8.023h1.029l0.879-1.929
			H145.82L145.82,24.54z M145.421,23.662h-2.735l1.367-3.114L145.421,23.662L145.421,23.662z"/>
		<polygon points="152.602,18.772 151.643,18.772 151.643,26.468 154.939,26.468 154.939,25.59 152.602,25.59 152.602,18.772 		"/>
		<polygon points="159.799,18.772 158.84,18.772 158.84,26.468 162.137,26.468 162.137,25.59 159.799,25.59 159.799,18.772 		"/>
		<polygon points="166.968,18.772 166.008,18.772 166.008,26.468 166.968,26.468 166.968,18.772 		"/>
		<polygon points="173.748,19.65 175.574,19.65 175.574,18.772 170.961,18.772 170.961,19.65 172.789,19.65 172.789,26.468 
			173.748,26.468 173.748,19.65 		"/>
		<path d="M179.364,18.772v4.869c0,1.694,1.051,2.991,2.817,2.991c1.766,0,2.816-1.296,2.816-2.991v-4.869h-0.959v4.543
			c0,1.254-0.377,2.419-1.857,2.419c-1.479,0-1.859-1.165-1.859-2.419v-4.543H179.364L179.364,18.772z"/>
		<path d="M193.681,19.772c-0.418-0.746-1.124-1.165-1.979-1.165c-1.165,0-2.268,0.746-2.268,1.992c0,1.071,0.797,1.571,1.675,1.949
			l0.531,0.225c0.663,0.275,1.327,0.632,1.327,1.46c0,0.807-0.593,1.501-1.42,1.501c-0.826,0-1.5-0.613-1.49-1.461l-0.969,0.205
			c0.163,1.235,1.133,2.154,2.377,2.154c1.379,0,2.461-1,2.461-2.398c0-1.287-0.816-1.888-1.91-2.316l-0.551-0.215
			c-0.479-0.184-1.07-0.501-1.07-1.102c0-0.674,0.673-1.092,1.286-1.092c0.581,0,0.948,0.244,1.234,0.723L193.681,19.772
			L193.681,19.772z"/>
	</g>
	<g display="inline">
		<polygon fill="#FFD300" points="10.536,20.761 20.769,30.998 10.536,41.23 0.302,30.995 10.536,20.761 		"/>
		<polygon fill="#F6921E" points="20.769,10.526 31.001,20.764 20.769,30.998 10.536,20.761 20.769,10.526 		"/>
		<polygon fill="#EC1C24" points="31.001,0.293 41.233,10.53 31.001,20.764 20.769,10.526 31.001,0.293 		"/>
		<polygon fill="#8BC53F" points="20.769,30.998 31.001,41.236 20.769,51.469 10.536,41.23 20.769,30.998 		"/>
		<polygon fill="#FFFFFF" points="31.001,20.764 41.233,31.001 31.001,41.236 20.769,30.998 31.001,20.764 		"/>
		<polygon fill="#90278E" points="41.233,10.53 51.466,20.767 41.233,31.001 31.001,20.764 41.233,10.53 		"/>
		<polygon fill="#00A551" points="31.001,41.236 41.233,51.471 31.001,61.707 20.769,51.469 31.001,41.236 		"/>
		<polygon fill="#00707E" points="41.233,31.001 51.466,41.238 41.233,51.471 31.001,41.236 41.233,31.001 		"/>
		<polygon fill="#2E3191" points="51.466,20.767 61.698,31.005 51.466,41.238 41.233,31.001 51.466,20.767 		"/>
	</g>
</g>
<g>
	<g>
		<path fill="#FFFFFF" d="M76.408,36.135v4.869c0,1.693,1.053,2.99,2.818,2.99s2.816-1.297,2.816-2.99v-4.869h-0.959v4.543
			c0,1.254-0.377,2.418-1.857,2.418s-1.857-1.164-1.857-2.418v-4.543H76.408L76.408,36.135z"/>
		<polygon fill="#FFFFFF" points="88.51,37.012 90.338,37.012 90.338,36.135 85.725,36.135 85.725,37.012 87.551,37.012 
			87.551,43.832 88.51,43.832 88.51,37.012 		"/>
		<path fill-rule="evenodd" clip-rule="evenodd" fill="#FFFFFF" d="M95.035,36.992h0.266c0.898,0,1.633,0.184,1.633,1.264
			c0,1.104-0.744,1.287-1.652,1.287h-0.246V36.992L95.035,36.992z M95.035,40.309h0.593c0.856,0,1.96,0.225,1.96,1.307
			c0,1.092-0.93,1.358-1.816,1.358h-0.736V40.309L95.035,40.309z M94.076,43.832h1.797c1.357,0,2.674-0.614,2.674-2.154
			c0-0.898-0.633-1.786-1.542-1.951v-0.02c0.521-0.244,0.827-0.897,0.827-1.461c0-1.735-1.367-2.111-2.816-2.111h-0.939V43.832
			L94.076,43.832z"/>
		<polygon fill="#FFFFFF" points="103.613,36.135 102.654,36.135 102.654,43.832 103.613,43.832 103.613,36.135 		"/>
		<polygon fill="#FFFFFF" points="109.077,36.135 108.117,36.135 108.117,43.832 111.414,43.832 111.414,42.953 109.077,42.953 
			109.077,36.135 		"/>
		<path fill-rule="evenodd" clip-rule="evenodd" fill="#FFFFFF" d="M115.03,43.832h1.562c2.43,0,4.349-1.268,4.349-3.891
			c0-2.562-1.96-3.807-4.317-3.807h-1.593V43.832L115.03,43.832z M115.99,37.012h0.336c1.96,0,3.654,0.726,3.654,2.97
			c0,2.237-1.694,2.972-3.654,2.972h-0.336V37.012L115.99,37.012z"/>
		<polygon fill="#FFFFFF" points="124.976,43.832 125.936,43.832 125.936,38.094 131.713,44.148 131.713,36.135 130.753,36.135 
			130.753,41.819 124.976,35.768 124.976,43.832 		"/>
		<polygon fill="#FFFFFF" points="137.179,36.135 136.22,36.135 136.22,43.832 137.179,43.832 137.179,36.135 		"/>
		<polygon fill="#FFFFFF" points="141.693,43.832 142.652,43.832 142.652,38.094 148.43,44.148 148.43,36.135 147.472,36.135 
			147.472,41.819 141.693,35.768 141.693,43.832 		"/>
		<path fill="#FFFFFF" d="M156.827,39.951v0.878h1.989c-0.041,1.257-1.327,2.286-2.521,2.286c-1.664,0-2.99-1.53-2.99-3.144
			c0-1.726,1.348-3.122,3.072-3.122c0.939,0,1.869,0.498,2.42,1.254l0.674-0.643c-0.756-0.95-1.94-1.488-3.135-1.488
			c-2.215,0-3.99,1.814-3.99,4.031c0,2.132,1.734,3.99,3.888,3.99c2.155,0,3.646-1.624,3.646-3.736v-0.307H156.827L156.827,39.951z"
			/>
		<path fill="#FFFFFF" d="M168.182,37.134c-0.418-0.745-1.123-1.161-1.979-1.161c-1.165,0-2.268,0.742-2.268,1.989
			c0,1.072,0.796,1.571,1.674,1.95l0.531,0.225c0.662,0.273,1.327,0.633,1.327,1.458c0,0.808-0.593,1.501-1.419,1.501
			c-0.828,0-1.501-0.613-1.49-1.459l-0.971,0.202c0.164,1.237,1.133,2.155,2.379,2.155c1.377,0,2.46-1,2.46-2.399
			c0-1.286-0.817-1.888-1.909-2.316l-0.551-0.214c-0.48-0.186-1.072-0.502-1.072-1.103c0-0.673,0.675-1.093,1.287-1.093
			c0.58,0,0.948,0.244,1.235,0.724L168.182,37.134L168.182,37.134z"/>
		<path fill="#FFFFFF" d="M176.831,37.134c-0.419-0.745-1.124-1.161-1.979-1.161c-1.165,0-2.268,0.742-2.268,1.989
			c0,1.072,0.797,1.571,1.675,1.95l0.531,0.225c0.663,0.273,1.327,0.633,1.327,1.458c0,0.808-0.593,1.501-1.42,1.501
			c-0.826,0-1.5-0.613-1.489-1.459l-0.97,0.202c0.163,1.237,1.133,2.155,2.377,2.155c1.378,0,2.461-1,2.461-2.399
			c0-1.286-0.816-1.888-1.908-2.316l-0.553-0.214c-0.479-0.186-1.07-0.502-1.07-1.103c0-0.673,0.673-1.093,1.285-1.093
			c0.582,0,0.949,0.244,1.235,0.724L176.831,37.134L176.831,37.134z"/>
		<polygon fill="#FFFFFF" points="183.367,37.012 185.193,37.012 185.193,36.135 180.58,36.135 180.58,37.012 182.408,37.012 
			182.408,43.832 183.367,43.832 183.367,37.012 		"/>
		<polygon fill="#FFFFFF" points="190.83,40.482 190.83,43.832 191.791,43.832 191.791,40.482 194.301,36.135 193.197,36.135 
			191.311,39.42 189.422,36.135 188.319,36.135 190.83,40.482 		"/>
		<path fill-rule="evenodd" clip-rule="evenodd" fill="#FFFFFF" d="M200.391,40.482c1.111-0.132,1.848-1.053,1.848-2.154
			c0-0.735-0.368-1.459-1.012-1.838c-0.611-0.346-1.348-0.355-2.031-0.355h-1.164v7.697h0.961v-3.258h0.396l2.268,3.258h1.162
			L200.391,40.482L200.391,40.482z M198.992,36.992h0.254c0.949,0,2.094,0.172,2.094,1.379c0,1.224-1.062,1.406-2.041,1.406h-0.307
			V36.992L198.992,36.992z"/>
		<polygon fill="#FFFFFF" points="206.643,43.832 210.775,43.832 210.775,42.953 207.602,42.953 207.602,40.044 210.684,40.044 
			210.684,39.166 207.602,39.166 207.602,37.012 210.775,37.012 210.775,36.135 206.643,36.135 206.643,43.832 		"/>
		<polygon fill="#FFFFFF" points="215.986,36.135 215.027,36.135 215.027,43.832 218.324,43.832 218.324,42.953 215.986,42.953 
			215.986,36.135 		"/>
		<path fill="#FFFFFF" d="M226.309,37.134c-0.418-0.745-1.123-1.161-1.979-1.161c-1.163,0-2.267,0.742-2.267,1.989
			c0,1.072,0.797,1.571,1.674,1.95l0.531,0.225c0.664,0.273,1.326,0.633,1.326,1.458c0,0.808-0.592,1.501-1.418,1.501
			s-1.502-0.613-1.49-1.459l-0.97,0.202c0.163,1.237,1.134,2.155,2.378,2.155c1.379,0,2.461-1,2.461-2.399
			c0-1.286-0.816-1.888-1.909-2.316l-0.552-0.214c-0.479-0.186-1.071-0.502-1.071-1.103c0-0.673,0.673-1.093,1.285-1.093
			c0.583,0,0.95,0.244,1.237,0.724L226.309,37.134L226.309,37.134z"/>
		<polygon fill="#FFFFFF" points="230.773,43.832 234.907,43.832 234.907,42.953 231.732,42.953 231.732,40.044 234.814,40.044 
			234.814,39.166 231.732,39.166 231.732,37.012 234.907,37.012 234.907,36.135 230.773,36.135 230.773,43.832 		"/>
		<polygon fill="#FFFFFF" points="239.169,43.832 240.129,43.832 240.129,38.094 245.906,44.148 245.906,36.135 244.946,36.135 
			244.946,41.819 239.169,35.768 239.169,43.832 		"/>
		<path fill-rule="evenodd" clip-rule="evenodd" fill="#FFFFFF" d="M80.033,18.607c-2.205,0-4.031,1.808-4.031,4.012
			c0,2.286,1.806,4.012,4.031,4.012c2.225,0,4.032-1.726,4.032-4.012C84.065,20.415,82.237,18.607,80.033,18.607L80.033,18.607z
			 M80.033,25.734c-1.665,0-3.073-1.359-3.073-3.114c0-1.694,1.267-3.112,3.073-3.112s3.072,1.417,3.072,3.112
			C83.105,24.375,81.696,25.734,80.033,25.734L80.033,25.734z"/>
		<path fill-rule="evenodd" clip-rule="evenodd" fill="#FFFFFF" d="M89.021,23.243h0.551c1.46,0,2.695-0.623,2.695-2.247
			c0-1.409-0.735-2.224-3.103-2.224h-1.104v7.696h0.96V23.243L89.021,23.243z M89.021,19.63h0.255c0.949,0,2.094,0.142,2.094,1.346
			c0,1.225-1.062,1.409-2.042,1.409h-0.307V19.63L89.021,19.63z"/>
		<polygon fill="#FFFFFF" points="96.383,26.468 100.518,26.468 100.518,25.59 97.343,25.59 97.343,22.682 100.426,22.682 
			100.426,21.804 97.343,21.804 97.343,19.65 100.518,19.65 100.518,18.772 96.383,18.772 96.383,26.468 		"/>
		<polygon fill="#FFFFFF" points="106.943,19.65 108.771,19.65 108.771,18.772 104.156,18.772 104.156,19.65 105.983,19.65 
			105.983,26.468 106.943,26.468 106.943,19.65 		"/>
		<path fill="#FFFFFF" d="M112.561,18.772v4.869c0,1.694,1.051,2.991,2.816,2.991s2.816-1.296,2.816-2.991v-4.869h-0.959v4.543
			c0,1.254-0.377,2.419-1.857,2.419s-1.857-1.165-1.857-2.419v-4.543H112.561L112.561,18.772z"/>
		<path fill="#FFFFFF" d="M126.875,19.772c-0.417-0.746-1.121-1.165-1.979-1.165c-1.163,0-2.266,0.746-2.266,1.992
			c0,1.071,0.796,1.571,1.674,1.949l0.53,0.225c0.665,0.275,1.328,0.632,1.328,1.46c0,0.807-0.592,1.501-1.42,1.501
			c-0.826,0-1.5-0.613-1.49-1.461l-0.969,0.205c0.163,1.235,1.133,2.154,2.378,2.154c1.378,0,2.46-1,2.46-2.398
			c0-1.287-0.816-1.888-1.908-2.316l-0.552-0.215c-0.479-0.184-1.071-0.501-1.071-1.102c0-0.674,0.674-1.092,1.286-1.092
			c0.581,0,0.95,0.244,1.235,0.723L126.875,19.772L126.875,19.772z"/>
		<polygon fill="#FFFFFF" points="132.014,21.875 132.014,18.772 131.055,18.772 131.055,26.468 132.014,26.468 132.014,22.773 
			135.679,22.773 135.679,26.468 136.637,26.468 136.637,18.772 135.679,18.772 135.679,21.875 132.014,21.875 		"/>
		<path fill-rule="evenodd" clip-rule="evenodd" fill="#FFFFFF" d="M145.82,24.54l0.877,1.929h1.031l-3.676-8.023l-3.674,8.023
			h1.029l0.879-1.929H145.82L145.82,24.54z M145.421,23.662h-2.735l1.367-3.114L145.421,23.662L145.421,23.662z"/>
		<polygon fill="#FFFFFF" points="152.602,18.772 151.643,18.772 151.643,26.468 154.939,26.468 154.939,25.59 152.602,25.59 
			152.602,18.772 		"/>
		<polygon fill="#FFFFFF" points="159.799,18.772 158.84,18.772 158.84,26.468 162.137,26.468 162.137,25.59 159.799,25.59 
			159.799,18.772 		"/>
		<polygon fill="#FFFFFF" points="166.968,18.772 166.008,18.772 166.008,26.468 166.968,26.468 166.968,18.772 		"/>
		<polygon fill="#FFFFFF" points="173.748,19.65 175.574,19.65 175.574,18.772 170.961,18.772 170.961,19.65 172.789,19.65 
			172.789,26.468 173.748,26.468 173.748,19.65 		"/>
		<path fill="#FFFFFF" d="M179.364,18.772v4.869c0,1.694,1.051,2.991,2.817,2.991c1.766,0,2.816-1.296,2.816-2.991v-4.869h-0.959
			v4.543c0,1.254-0.377,2.419-1.857,2.419c-1.479,0-1.859-1.165-1.859-2.419v-4.543H179.364L179.364,18.772z"/>
		<path fill="#FFFFFF" d="M193.681,19.772c-0.418-0.746-1.124-1.165-1.979-1.165c-1.165,0-2.268,0.746-2.268,1.992
			c0,1.071,0.797,1.571,1.675,1.949l0.531,0.225c0.663,0.275,1.327,0.632,1.327,1.46c0,0.807-0.593,1.501-1.42,1.501
			c-0.826,0-1.5-0.613-1.49-1.461l-0.969,0.205c0.163,1.235,1.133,2.154,2.377,2.154c1.379,0,2.461-1,2.461-2.398
			c0-1.287-0.816-1.888-1.91-2.316l-0.551-0.215c-0.479-0.184-1.07-0.501-1.07-1.102c0-0.674,0.673-1.092,1.286-1.092
			c0.581,0,0.948,0.244,1.234,0.723L193.681,19.772L193.681,19.772z"/>
	</g>
	<g>
		<g>
			<polygon fill="#FFFFFF" points="21.609,51.604 31.001,61 40.392,51.605 31.001,42.211 			"/>
			<polygon fill="#FFFFFF" points="31.909,20.697 41.3,30.093 50.691,20.699 41.3,11.304 			"/>
			<polygon fill="#FFFFFF" points="11.31,20.693 20.7,30.089 30.092,20.697 20.7,11.301 			"/>
			<polygon fill="#FFFFFF" points="40.392,10.396 31.001,1 21.609,10.392 31.001,19.789 			"/>
			<polygon fill="#FFFFFF" points="60.991,31.005 51.601,21.608 42.209,31.001 51.601,40.396 			"/>
			
				<rect x="3.758" y="24.355" transform="matrix(-0.707 -0.7072 0.7072 -0.707 -4.166 60.2663)" fill="#FFFFFF" width="13.284" height="13.282"/>
			
				<rect x="34.658" y="34.663" transform="matrix(0.707 0.7073 -0.7073 0.707 41.3152 -17.106)" fill="#FFFFFF" width="13.284" height="13.282"/>
			<polygon fill="#FFFFFF" points="30.092,41.303 20.7,31.906 11.31,41.298 20.7,50.694 			"/>
		</g>
	</g>
</g>
</svg>
