<?xml version="1.0" encoding="utf-8"?>
<!-- Generator: Adobe Illustrator 18.0.0, SVG Export Plug-In . SVG Version: 6.00 Build 0)  -->
<!DOCTYPE svg PUBLIC "-//W3C//DTD SVG 1.1//EN" "http://www.w3.org/Graphics/SVG/1.1/DTD/svg11.dtd">
<svg version="1.1" id="Layer_1" xmlns="http://www.w3.org/2000/svg" xmlns:xlink="http://www.w3.org/1999/xlink" x="0px" y="0px"
	 width="270px" height="75.5px" viewBox="0 0 270 75.5" enable-background="new 0 0 270 75.5" xml:space="preserve">
<g>
	<path fill="#FFFFFF" d="M270,53.4v-9.5h-1v7.6l-5-7.6h-1v9.5h1v-7.6l5,7.6H270z M259.9,53.4v-0.9H255v-3.4h4.2v-0.9H255v-3.3h4.9
		v-0.9H254v9.5H259.9z M250.9,50.8c0-0.8-0.3-1.4-0.8-1.9c-0.4-0.3-0.8-0.5-1.7-0.7l-1-0.2c-0.5-0.1-1-0.3-1.3-0.5
		c-0.3-0.3-0.4-0.6-0.4-1.1c0-1.1,0.7-1.8,2-1.8c1,0,1.6,0.3,2.2,0.8l0.7-0.7c-0.8-0.7-1.6-1-2.8-1c-1.9,0-3,1.1-3,2.7
		c0,0.8,0.2,1.3,0.7,1.8c0.4,0.4,1,0.6,1.7,0.7l1.1,0.2c0.7,0.1,0.9,0.2,1.2,0.5c0.3,0.3,0.5,0.7,0.5,1.2c0,1.1-0.9,1.8-2.2,1.8
		c-1.1,0-1.8-0.3-2.6-1l-0.7,0.7c0.9,0.9,1.8,1.3,3.3,1.3C249.5,53.5,250.9,52.5,250.9,50.8 M242.9,53.4v-0.9H238v-8.6h-1v9.5H242.9
		z M233.9,53.4v-0.9H229v-3.4h4.2v-0.9H229v-3.3h4.9v-0.9H228v9.5H233.9z M223.7,46.6c0,1.2-0.8,1.7-1.9,1.7h-2.5v-3.5h2.5
		C222.9,44.9,223.7,45.4,223.7,46.6 M224.9,53.4l-2.3-4.3c1.2-0.3,2.1-1.2,2.1-2.5c0-1.6-1.2-2.6-2.8-2.6h-3.6v9.5h1v-4.2h2.3
		l2.2,4.2H224.9z M215.8,43.9h-1.1l-2.2,4.6l-2.2-4.6h-1.1l2.8,5.6v3.9h1v-3.9L215.8,43.9z M207.4,44.9v-0.9h-6.5v0.9h2.7v8.6h1
		v-8.6H207.4z M199.4,50.8c0-0.8-0.3-1.4-0.8-1.9c-0.4-0.3-0.8-0.5-1.7-0.7l-1-0.2c-0.5-0.1-1-0.3-1.3-0.5c-0.3-0.3-0.4-0.6-0.4-1.1
		c0-1.1,0.7-1.8,2-1.8c1,0,1.6,0.3,2.2,0.8l0.7-0.7c-0.8-0.7-1.6-1-2.8-1c-1.9,0-3,1.1-3,2.7c0,0.8,0.2,1.3,0.7,1.8
		c0.4,0.4,1,0.6,1.7,0.7l1.1,0.2c0.7,0.1,0.9,0.2,1.2,0.5c0.3,0.3,0.5,0.7,0.5,1.2c0,1.1-0.9,1.8-2.2,1.8c-1.1,0-1.8-0.3-2.6-1
		l-0.7,0.7c0.9,0.9,1.8,1.3,3.3,1.3C198.1,53.5,199.4,52.5,199.4,50.8 M190.8,50.8c0-0.8-0.3-1.4-0.8-1.9c-0.4-0.3-0.8-0.5-1.7-0.7
		l-1-0.2c-0.5-0.1-1-0.3-1.3-0.5c-0.3-0.3-0.4-0.6-0.4-1.1c0-1.1,0.7-1.8,2-1.8c1,0,1.6,0.3,2.2,0.8l0.7-0.7c-0.8-0.7-1.6-1-2.8-1
		c-1.9,0-3,1.1-3,2.7c0,0.8,0.2,1.3,0.7,1.8c0.4,0.4,1,0.6,1.7,0.7l1.1,0.2c0.7,0.1,0.9,0.2,1.2,0.5c0.3,0.3,0.5,0.7,0.5,1.2
		c0,1.1-0.9,1.8-2.2,1.8c-1.1,0-1.8-0.3-2.6-1l-0.7,0.7c0.9,0.9,1.8,1.3,3.3,1.3C189.5,53.5,190.8,52.5,190.8,50.8 M181.7,50v-1.5
		h-3.3v0.9h2.3v0.7c0,0.7-0.1,1.3-0.5,1.7c-0.4,0.5-1.1,0.8-1.8,0.8c-0.6,0-1.2-0.2-1.6-0.7c-0.6-0.6-0.7-1.3-0.7-3.3
		s0.1-2.6,0.7-3.2c0.4-0.4,1-0.7,1.6-0.7c1.2,0,2,0.7,2.3,1.9h1c-0.3-1.7-1.5-2.8-3.3-2.8c-0.9,0-1.8,0.3-2.4,1
		c-0.9,0.9-0.9,1.8-0.9,3.8s0,2.9,0.9,3.8c0.6,0.6,1.5,1,2.4,1c1,0,1.9-0.4,2.5-1.1C181.5,51.8,181.7,51.1,181.7,50 M171.6,53.4
		v-9.5h-1v7.6l-5-7.6h-1v9.5h1v-7.6l5,7.6H171.6z M160.9,43.9h-1v9.5h1V43.9z M156.1,53.4v-9.5h-1v7.6l-5-7.6h-1v9.5h1v-7.6l5,7.6
		H156.1z M144.7,48.6c0,1.2,0,2.6-0.6,3.3c-0.5,0.5-1.1,0.7-1.9,0.7h-2.1v-7.7h2.1c0.7,0,1.4,0.2,1.9,0.7
		C144.7,46.2,144.7,47.4,144.7,48.6 M145.7,48.6c0-1.3,0.1-2.8-0.9-3.8c-0.6-0.6-1.4-0.9-2.4-0.9h-3.3v9.5h3.3c1,0,1.8-0.3,2.4-0.9
		C145.8,51.6,145.7,49.9,145.7,48.6 M136.3,53.4v-0.9h-4.9v-8.6h-1v9.5H136.3z M126.7,43.9h-1v9.5h1V43.9z M121.3,50.8
		c0,1.1-0.7,1.7-1.9,1.7h-2.6v-3.5h2.6C120.6,49.1,121.3,49.7,121.3,50.8 M121.2,46.5c0,1.1-0.8,1.7-1.9,1.7h-2.5v-3.3h2.5
		C120.3,44.9,121.2,45.4,121.2,46.5 M122.3,50.8c0-1.1-0.6-1.9-1.5-2.3c0.8-0.3,1.4-1.1,1.4-2.1c0-1.6-1.1-2.5-2.8-2.5h-3.6v9.5h3.7
		C121.2,53.4,122.3,52.5,122.3,50.8 M113,44.9v-0.9h-6.5v0.9h2.7v8.6h1v-8.6H113z M103.9,50.3v-6.4h-1v6.3c0,1.4-0.9,2.4-2.3,2.4
		c-1.4,0-2.3-0.9-2.3-2.4v-6.3h-1v6.4c0,1.9,1.4,3.2,3.3,3.2C102.5,53.5,103.9,52.2,103.9,50.3"/>
	<path fill="#FFFFFF" d="M218.4,31.3c0-0.8-0.3-1.4-0.8-1.9c-0.4-0.3-0.8-0.5-1.7-0.7l-1-0.2c-0.5-0.1-1-0.3-1.3-0.5
		c-0.3-0.3-0.4-0.6-0.4-1.1c0-1.1,0.7-1.8,2-1.8c1,0,1.6,0.3,2.2,0.8l0.7-0.7c-0.8-0.7-1.6-1-2.8-1c-1.9,0-3,1.1-3,2.7
		c0,0.8,0.2,1.3,0.7,1.8c0.4,0.4,1,0.6,1.7,0.7l1.1,0.2c0.7,0.1,0.9,0.2,1.2,0.5c0.3,0.3,0.5,0.7,0.5,1.2c0,1.1-0.9,1.8-2.2,1.8
		c-1.1,0-1.8-0.3-2.6-1l-0.7,0.7c0.9,0.9,1.8,1.3,3.3,1.3C217.1,34,218.4,32.9,218.4,31.3 M209,30.7v-6.4h-1v6.3
		c0,1.4-0.9,2.4-2.3,2.4c-1.4,0-2.3-0.9-2.3-2.4v-6.3h-1v6.4c0,1.9,1.4,3.2,3.3,3.2C207.6,34,209,32.6,209,30.7 M199.8,25.3v-0.9
		h-6.5v0.9h2.7v8.6h1v-8.6H199.8z M190.5,24.4h-1v9.5h1V24.4z M186.7,33.9V33h-4.9v-8.6h-1v9.5H186.7z M178,33.9V33h-4.9v-8.6h-1
		v9.5H178z M167.5,30.8h-3.5l1.8-5L167.5,30.8z M169.6,33.9l-3.5-9.5h-0.9l-3.5,9.5h1.1l0.8-2.1h4.1l0.8,2.1H169.6z M159.3,33.9
		v-9.5h-1v4.3h-4.5v-4.3h-1v9.5h1v-4.3h4.5v4.3H159.3z M149.6,31.3c0-0.8-0.3-1.4-0.8-1.9c-0.4-0.3-0.8-0.5-1.7-0.7l-1-0.2
		c-0.5-0.1-1-0.3-1.3-0.5s-0.4-0.6-0.4-1.1c0-1.1,0.7-1.8,2-1.8c1,0,1.6,0.3,2.2,0.8l0.7-0.7c-0.8-0.7-1.6-1-2.8-1
		c-1.9,0-3,1.1-3,2.7c0,0.8,0.2,1.3,0.7,1.8c0.4,0.4,1,0.6,1.7,0.7l1.1,0.2c0.7,0.1,0.9,0.2,1.2,0.5c0.3,0.3,0.5,0.7,0.5,1.2
		c0,1.1-0.9,1.8-2.2,1.8c-1.1,0-1.8-0.3-2.6-1l-0.7,0.7c0.9,0.9,1.8,1.3,3.3,1.3C148.3,34,149.6,32.9,149.6,31.3 M140.3,30.7v-6.4
		h-1v6.3c0,1.4-0.9,2.4-2.3,2.4c-1.4,0-2.3-0.9-2.3-2.4v-6.3h-1v6.4c0,1.9,1.4,3.2,3.3,3.2C138.9,34,140.3,32.6,140.3,30.7
		 M131,25.3v-0.9h-6.5v0.9h2.7v8.6h1v-8.6H131z M122.3,33.9V33h-4.9v-3.4h4.2v-0.9h-4.2v-3.3h4.9v-0.9h-5.9v9.5H122.3z M112.5,27.2
		c0,1.3-0.8,1.9-2,1.9h-2.4v-3.8h2.4C111.7,25.3,112.5,25.9,112.5,27.2 M113.5,27.2c0-1.7-1.2-2.8-2.9-2.8H107v9.5h1V30h2.5
		C112.3,30,113.5,28.9,113.5,27.2 M102.6,29.1c0,2-0.1,2.6-0.7,3.2c-0.4,0.4-1,0.7-1.6,0.7c-0.6,0-1.2-0.3-1.6-0.7
		c-0.6-0.6-0.7-1.3-0.7-3.2s0.1-2.6,0.7-3.2c0.4-0.4,1-0.7,1.6-0.7c0.6,0,1.2,0.3,1.6,0.7C102.6,26.5,102.6,27.1,102.6,29.1
		 M103.6,29.1c0-2,0-2.9-0.9-3.8c-0.6-0.6-1.5-1-2.4-1c-0.9,0-1.8,0.3-2.4,1C97,26.2,97,27.1,97,29.1s0,2.9,0.9,3.8
		c0.6,0.6,1.5,1,2.4,1c0.9,0,1.8-0.3,2.4-1C103.6,32.1,103.6,31.1,103.6,29.1"/>
</g>
<g>
	<path fill="#FFFFFF" d="M49.2,4.7C31.6-6.1,9.1,54.3,7.4,39.1C3.1,9.9,25.7,0.6,25.7,0.6C11.2,5.4-0.3,20.1,0,37.2
		c0.3,17.1,9.8,26.9,13.3,28.6c4.4,2.2,8.2,0.1,10.1-1.7c7.2-6.9,20.3-47.7,31.3-44.5c12.3,3,10.7,28.9,11.3,33.9
		c1.2,9.9,4,8.7,7.8,1.4c2.6-4.9,4.3-10.5,4.2-18c0,0-0.2,2.8-2.4,2.3c-2-0.4-2.7-1.6-7.8-9.4C62.6,21.7,54.5,7.9,49.2,4.7"/>
	<path fill="#FFFFFF" d="M24.5,16.7c1.7-2.9,12.4-18.5,7.2-16.5C30.7,0.6,18,4.1,12,17.4c0.9-0.7,1.8-1.3,2.7-1.9
		c9.2-5.8,1.8,4-1.5,18c1-1.5,2.1-3.1,3.1-4.6C18.8,25,22.8,19.6,24.5,16.7 M22.3,67.5c14.1,12,37.6,10.9,36.2-5.4
		c-1.7-19.3-1.6-27.9-1.5-39c-0.8-0.7-1.8-1.2-2.8-1.4c-2.7-0.8-6.1,3-9.6,8.4c0,0.1-0.1,0.2-0.1,0.3c-4,11.6-9,33-16.2,30.6
		c-1.2,2.1-2.4,3.7-3.5,4.7C24.1,66.3,23.2,66.9,22.3,67.5 M76.4,26.3C74.1,16.9,64.9,5.4,60.1,6.2c-0.9,0.1-2.3,0.4-4.2,2.1
		c0.6,0.8,1.2,1.6,1.8,2.4C60.6-2,69.9,18,73.2,34.2c0.2,0.8,1.8,2.8,2.6,3C77.5,37.6,77.6,30.9,76.4,26.3"/>
</g>
</svg>
